HIERARCHY
ROOT Hips
{
  OFFSET 0.000000 0.000000 0.000000
  CHANNELS 6 Xposition Yposition Zposition Xrotation Yrotation Zrotation
  JOINT Spine
  {
    OFFSET 0.211591 24.227834 -3.764787
    CHANNELS 3 Xrotation Yrotation Zrotation
    JOINT Chest
    {
      OFFSET 0.211591 24.227834 -3.764787
      CHANNELS 3 Xrotation Yrotation Zrotation
      JOINT Neck
      {
        OFFSET -1.100772 8.441563 -3.430650
        CHANNELS 3 Xrotation Yrotation Zrotation
        JOINT Head
        {
          OFFSET -1.192129 7.757112 -7.601908
          CHANNELS 3 Xrotation Yrotation Zrotation
          End Site
          {
            OFFSET -0.357639 2.327134 -2.280572
          }
        }
      }
      JOINT LeftShoulder
      {
        OFFSET 17.192089 0.613400 -1.554494
        CHANNELS 3 Xrotation Yrotation Zrotation
        JOINT LeftArm
        {
          OFFSET 6.822346 -20.001605 -11.416031
          CHANNELS 3 Xrotation Yrotation Zrotation
          JOINT LeftForeArm
          {
            OFFSET -10.811707 -3.287858 -20.004664
            CHANNELS 3 Xrotation Yrotation Zrotation
            JOINT LeftHand
            {
              OFFSET -2.972239 -0.032078 -2.791873
              CHANNELS 3 Xrotation Yrotation Zrotation
              End Site
              {
                OFFSET -0.891672 -0.009623 -0.837562
              }
            }
          }
        }
      }
      JOINT RightShoulder
      {
        OFFSET -17.192089 -0.613400 1.554494
        CHANNELS 3 Xrotation Yrotation Zrotation
        JOINT RightArm
        {
          OFFSET -7.078612 -20.128798 -9.457155
          CHANNELS 3 Xrotation Yrotation Zrotation
          JOINT RightForeArm
          {
            OFFSET 6.068787 -1.370308 -22.325569
            CHANNELS 3 Xrotation Yrotation Zrotation
            JOINT RightHand
            {
              OFFSET 2.627653 0.279547 -3.282648
              CHANNELS 3 Xrotation Yrotation Zrotation
              End Site
              {
                OFFSET 0.788296 0.083864 -0.984794
              }
            }
          }
        }
      }
    }
  }
  JOINT LeftUpLeg
  {
    OFFSET 11.367086 0.027478 -2.758015
    CHANNELS 3 Xrotation Yrotation Zrotation
    JOINT LeftLeg
    {
      OFFSET 2.451199 -39.057141 -4.768226
      CHANNELS 3 Xrotation Yrotation Zrotation
      JOINT LeftFoot
      {
        OFFSET 10.058204 -39.973237 0.774249
        CHANNELS 3 Xrotation Yrotation Zrotation
        End Site
        {
          OFFSET 3.017461 -11.991971 0.232275
        }
      }
    }
  }
  JOINT RightUpLeg
  {
    OFFSET -11.367086 -0.027478 2.758015
    CHANNELS 3 Xrotation Yrotation Zrotation
    JOINT RightLeg
    {
      OFFSET -4.668361 -37.080477 -5.635053
      CHANNELS 3 Xrotation Yrotation Zrotation
      JOINT RightFoot
      {
        OFFSET -2.542494 -41.040053 5.594103
        CHANNELS 3 Xrotation Yrotation Zrotation
        End Site
        {
          OFFSET -0.762748 -12.312016 1.678231
        }
      }
    }
  }
}
MOTION
Frames: 20
Frame Time: 0.083333
0.000000 60.000000 0.000000 -0.697435 0.072172 0.388394 -0.697435 0.072172 0.388394 170.239585 -1.207348 -28.759222 -19.740130 -2.834560 0.721468 119.477066 -0.866681 -10.573035 1.736840 0.323090 0.456205 7.645937 -0.590864 -0.773710 0.000000 0.000000 0.000000 0.000000 0.000000 0.000000 0.794111 -0.282190 0.002214 2.851025 -0.309081 0.159378 0.000000 0.000000 0.000000 0.000000 0.000000 0.000000 -0.709012 -0.056665 0.112734 -2.064574 -0.498257 0.307541 0.000000 0.000000 0.000000 -2.846786 0.362367 -0.073015 -1.383120 -0.023124 -0.661185 0.000000 0.000000 0.000000
0.404420 60.000000 1.105835 -0.696426 0.072060 0.387906 -0.696426 0.072060 0.387906 170.494676 -1.276634 -30.406625 -19.668194 -3.261803 0.448113 117.504632 0.529393 4.973568 1.727130 0.300571 0.481776 6.827943 -0.554870 -0.692341 0.000000 0.000000 0.000000 0.000000 0.000000 0.000000 1.046602 -0.311869 -0.114333 2.632807 -0.255006 0.145843 0.000000 0.000000 0.000000 0.000000 0.000000 0.000000 -0.708924 -0.060008 0.141638 -2.090989 -0.500619 0.364015 0.000000 0.000000 0.000000 -2.877802 0.367679 -0.090629 -1.406443 -0.022421 -0.664949 0.000000 0.000000 0.000000
1.336399 60.000000 4.095054 -0.696430 0.072041 0.387790 -0.696430 0.072041 0.387790 169.873932 0.687499 16.027352 -21.088545 -7.372690 -1.901192 117.274601 7.722990 58.083405 4.794206 0.739373 1.475076 17.060041 -1.466984 -1.734552 0.000000 0.000000 0.000000 0.000000 0.000000 0.000000 3.649363 -0.860225 -0.830601 6.692520 -0.622859 0.367945 -148.996185 -20.662163 -97.898678 0.000000 0.000000 0.000000 -0.707699 -0.060162 0.142966 -2.092147 -0.500800 0.365193 0.000000 0.000000 0.000000 -2.878808 0.367926 -0.092188 -1.407409 -0.022408 -0.665174 0.000000 0.000000 0.000000
2.260113 60.000000 8.201629 -1.294159 0.154744 0.856547 -1.294159 0.154744 0.856547 170.646017 2.041158 45.987757 -21.865252 -14.008123 -5.844280 113.543938 13.670022 66.790939 6.650384 0.772036 2.415794 19.823885 -1.949415 -2.029175 0.000000 0.000000 0.000000 0.000000 0.000000 0.000000 6.869982 -0.923422 -2.827398 7.819136 -0.812956 0.423600 0.000000 0.000000 0.000000 0.000000 0.000000 0.000000 -1.520277 -0.228853 1.181376 -5.488523 -1.255366 1.654653 0.000000 0.000000 0.000000 -6.770191 0.907336 -0.702355 -3.459781 -0.019794 -1.408286 0.000000 0.000000 0.000000
2.612822 60.000000 12.603205 -0.529289 0.100739 0.602086 -0.529289 0.100739 0.602086 170.393096 3.183639 66.590399 -21.510084 -18.305273 -8.665607 115.284445 13.484407 72.275047 6.906099 0.839514 2.429007 21.794850 -2.389009 -2.254487 0.000000 0.000000 0.000000 0.000000 0.000000 0.000000 8.444821 -0.206886 -5.047744 7.566195 -1.362591 0.409243 161.100068 -30.113227 -107.089800 0.000000 0.000000 0.000000 -0.572147 -0.498509 3.753499 -6.926790 -1.366019 4.761085 0.000000 0.000000 0.000000 -7.185594 1.104510 -2.491242 -4.341011 0.056665 -1.184575 0.000000 0.000000 0.000000
2.479909 60.000000 14.737109 -0.719232 0.011652 0.039165 -0.719232 0.011652 0.039165 169.822350 4.120959 76.657833 -18.684100 -19.497617 -10.551564 114.697740 15.782116 76.390393 6.640249 2.103659 0.252094 26.258675 -3.192661 -2.782663 0.000000 0.000000 0.000000 0.000000 0.000000 0.000000 10.116491 -1.092803 -4.455325 8.775586 -1.955291 0.451782 0.000000 0.000000 0.000000 0.000000 0.000000 0.000000 3.237184 -0.725926 5.782046 -6.873252 -1.090841 7.936991 0.000000 0.000000 0.000000 -8.292002 1.422437 -5.300529 -6.548473 -0.015709 -1.944440 0.000000 0.000000 0.000000
2.522454 60.000000 14.161507 -1.190066 -0.068065 -0.466524 -1.190066 -0.068065 -0.466524 169.361014 5.692296 92.779131 -17.146963 -22.183650 -12.981340 111.441438 19.519735 74.939879 3.164406 3.742121 -4.304008 30.540228 -3.536743 -3.317923 0.000000 0.000000 0.000000 0.000000 0.000000 0.000000 8.782881 -4.120402 1.484853 9.664541 -2.945604 0.448680 0.000000 0.000000 0.000000 0.000000 0.000000 0.000000 11.860719 -0.964390 7.419667 -7.183372 -1.302814 5.893982 0.000000 0.000000 0.000000 -10.093947 1.789925 -9.009855 -11.114571 -0.374635 -4.027023 0.000000 0.000000 0.000000
2.893939 60.000000 12.618531 -1.463879 -0.154012 -1.014424 -1.463879 -0.154012 -1.014424 170.244324 6.781368 108.369328 -18.501771 -23.365011 -13.225092 108.515377 16.032647 59.424456 1.443481 3.957523 -5.782604 30.051932 -3.625038 -3.260207 0.000000 0.000000 0.000000 0.000000 0.000000 0.000000 8.859856 -6.508281 5.521737 12.337781 -3.689567 0.512384 0.000000 0.000000 0.000000 0.000000 0.000000 0.000000 20.010147 -1.054726 7.726859 -5.916803 -1.114625 5.108667 0.000000 0.000000 0.000000 -12.372041 1.989840 -10.595400 -17.805048 -0.797817 -6.493260 0.000000 0.000000 0.000000
3.489879 60.000000 10.741720 -0.270787 -0.320767 -2.114474 -0.270787 -0.320767 -2.114474 171.420703 5.671195 103.841434 -22.055667 -20.471538 -9.821463 110.544446 11.398443 50.753178 2.178274 2.950089 -3.731381 27.858346 -2.740411 -2.959877 0.000000 0.000000 0.000000 0.000000 0.000000 0.000000 8.176562 -3.857581 1.459816 9.275641 -2.984115 0.450510 0.000000 0.000000 0.000000 0.000000 0.000000 0.000000 18.141132 -0.974585 7.520219 -6.640998 -1.231438 5.445202 0.000000 0.000000 0.000000 -10.038031 2.096304 -12.684470 -18.685530 -0.272062 -4.759726 0.000000 0.000000 0.000000
4.577485 60.000000 9.958374 1.189883 -0.588136 -4.016939 1.189883 -0.588136 -4.016939 173.652385 3.342107 91.222815 -24.240585 -16.943749 -6.856273 110.453671 11.879217 52.133375 5.772406 2.054348 -0.074071 27.694708 -2.009439 -2.933814 0.000000 0.000000 0.000000 0.000000 0.000000 0.000000 6.351122 -1.550275 -1.395541 6.307643 -1.835459 0.345853 0.000000 0.000000 0.000000 0.000000 0.000000 0.000000 11.624341 -1.049882 7.902998 -8.942728 -1.588938 6.589941 0.000000 0.000000 0.000000 -4.458285 2.252650 -15.189797 -16.243905 0.253930 -2.802456 0.000000 0.000000 0.000000
5.349533 60.000000 9.013909 3.099376 -0.568994 -4.214054 3.099376 -0.568994 -4.214054 175.139299 1.813662 64.243984 -25.297949 -12.794090 -4.048988 113.263529 4.006405 24.271758 7.537666 1.490067 1.780019 16.622453 -2.165815 -1.625163 0.000000 0.000000 0.000000 0.000000 0.000000 0.000000 4.461518 -0.244529 -2.517546 1.313863 -0.909080 0.098354 0.000000 0.000000 0.000000 0.000000 0.000000 0.000000 7.809837 -1.017278 7.899349 -9.470550 -1.484271 8.525750 0.000000 0.000000 0.000000 -2.138107 2.389561 -16.192375 -11.241018 -0.262780 -4.068549 0.000000 0.000000 0.000000
5.097302 60.000000 9.444477 4.272419 -0.392488 -2.955349 4.272419 -0.392488 -2.955349 176.039042 -0.032617 -11.995093 -23.865541 -2.532763 1.675485 113.956878 -7.642461 -45.194486 5.951921 0.836215 1.920840 4.307634 -2.050859 -0.215977 0.000000 0.000000 0.000000 0.000000 0.000000 0.000000 -0.593117 0.368912 0.029958 -3.431706 0.026802 -0.177270 0.000000 0.000000 0.000000 0.000000 0.000000 0.000000 5.866677 -1.047754 8.164327 -10.976376 -1.640217 9.494181 0.000000 0.000000 0.000000 -3.194708 2.439614 -16.826035 -12.204997 -0.699907 -5.950764 0.000000 0.000000 0.000000
4.261646 60.000000 10.446084 5.034795 -0.070208 -0.085947 5.034795 -0.070208 -0.085947 176.818416 -3.139080 -128.042275 -21.839998 6.280193 6.789945 113.524238 -10.254622 -55.082672 1.156619 0.130551 0.373912 -0.514215 -0.575698 0.143314 140.835797 19.609596 -110.141910 0.000000 0.000000 0.000000 -8.336421 1.153602 4.468227 -1.354332 0.733935 -0.125489 -145.656921 -27.139843 -89.320354 0.000000 0.000000 0.000000 4.019655 -1.107726 8.667708 -11.629723 -1.642092 10.543613 0.000000 0.000000 0.000000 -4.426682 2.584383 -18.296042 -13.726846 -0.450766 -4.949029 0.000000 0.000000 0.000000
3.534028 60.000000 10.882226 5.930808 0.254004 2.838445 5.930808 0.254004 2.838445 175.083570 -4.437553 -120.911256 -21.498100 6.950015 7.259902 113.670923 -7.579726 -44.039133 -1.446140 0.174275 -1.232245 -1.724372 0.534361 0.094782 0.000000 0.000000 0.000000 0.000000 0.000000 0.000000 -8.208275 0.745946 5.423149 -1.999710 0.881243 -0.171278 0.000000 0.000000 0.000000 0.000000 0.000000 0.000000 2.533352 -1.251426 9.836461 -9.062911 -1.035405 12.872208 0.000000 0.000000 0.000000 -2.811179 2.797822 -19.456532 -11.481848 0.344003 -1.253533 0.000000 0.000000 0.000000
1.694793 60.000000 6.881416 4.619912 0.511112 4.792510 4.619912 0.511112 4.792510 173.942793 -6.159107 -128.113661 -25.248415 4.167375 5.699812 107.318787 -2.339460 -9.816482 1.729898 0.139515 0.679290 1.384108 1.332537 -0.368361 0.000000 0.000000 0.000000 0.000000 0.000000 0.000000 -4.222959 0.060304 3.330921 1.616528 1.597610 0.024108 -148.513527 -22.034010 -96.533823 0.000000 0.000000 0.000000 1.988256 -1.595884 12.359384 -3.956976 -0.184735 15.106190 0.000000 0.000000 0.000000 -1.029735 2.802765 -17.729766 -7.598849 1.273641 3.819758 0.000000 0.000000 0.000000
-0.754579 60.000000 2.424182 4.003601 0.676587 5.862180 4.003601 0.676587 5.862180 171.883920 -8.043226 -126.251644 -31.150844 2.513077 4.968958 106.546300 -3.454980 -13.835418 5.116815 -0.615575 3.810668 5.558629 1.119178 -0.740507 0.000000 0.000000 0.000000 0.000000 0.000000 0.000000 -0.076953 -1.032322 2.245684 8.705399 2.036192 0.494672 0.000000 0.000000 0.000000 0.000000 0.000000 0.000000 2.234104 -1.670916 12.770504 1.383747 0.494101 15.067681 0.000000 0.000000 0.000000 -7.490024 2.350725 -11.703323 -6.716055 1.955236 7.560409 0.000000 0.000000 0.000000
-1.246800 60.000000 2.237534 2.697492 0.909035 7.085867 2.697492 0.909035 7.085867 170.261341 -10.329473 -129.955311 -31.541156 5.425678 6.510775 106.032665 -5.739498 -22.045159 6.671773 -0.791479 4.860953 7.446419 1.687836 -1.003903 0.000000 0.000000 0.000000 0.000000 0.000000 0.000000 -1.008999 -1.004879 3.100397 10.264691 2.501085 0.591908 0.000000 0.000000 0.000000 0.000000 0.000000 0.000000 2.454126 -1.048855 7.927331 5.170669 0.988297 11.399732 0.000000 0.000000 0.000000 -15.777139 1.986957 -3.293258 -3.900240 1.072603 4.851117 0.000000 0.000000 0.000000
-0.919997 60.000000 5.143549 1.690818 0.989175 7.164687 1.690818 0.989175 7.164687 168.781027 -12.390334 -131.432746 -29.954310 10.976070 9.520502 102.121559 -15.456045 -45.435277 7.661655 0.076139 3.959349 7.511945 2.203282 -1.079642 0.000000 0.000000 0.000000 0.000000 0.000000 0.000000 -4.900225 -1.169513 7.217621 4.515678 3.447540 0.138180 0.000000 0.000000 0.000000 0.000000 0.000000 0.000000 0.677164 -0.038575 0.529505 5.526687 1.193195 6.567267 0.000000 0.000000 0.000000 -15.418375 1.943861 -1.925264 -2.062924 0.877016 4.854824 0.000000 0.000000 0.000000
-0.580082 60.000000 7.274651 0.459107 0.978256 6.468673 0.459107 0.978256 6.468673 169.413030 -13.908674 -138.924170 -26.831240 16.242208 12.529726 103.342868 -14.674932 -45.524911 5.573148 0.926583 1.534566 9.049833 2.480076 -1.265748 0.000000 0.000000 0.000000 0.000000 0.000000 0.000000 -8.997218 -1.644303 12.319432 3.429691 4.765310 0.026385 0.000000 0.000000 0.000000 0.000000 0.000000 0.000000 -0.069825 0.256099 -2.142990 6.121173 1.371509 4.399546 0.000000 0.000000 0.000000 -17.093612 2.135272 -2.639184 -3.141880 0.844190 3.990320 0.000000 0.000000 0.000000
-0.959493 60.000000 8.350624 0.984157 0.808940 5.569158 0.984157 0.808940 5.569158 169.824420 -14.387210 -141.736670 -26.201853 14.740051 11.738122 105.768631 -10.893822 -39.109273 1.811921 1.420221 -1.350211 11.831084 1.443898 -1.389943 0.000000 0.000000 0.000000 0.000000 0.000000 0.000000 -6.187715 -1.910733 9.829515 7.254642 4.445657 0.382027 0.000000 0.000000 0.000000 0.000000 0.000000 0.000000 0.114844 0.209986 -1.661439 6.643997 1.385506 6.385784 0.000000 0.000000 0.000000 -19.993546 2.419155 -1.996684 -5.167909 1.087432 4.136638 0.000000 0.000000 0.000000
